<svg width="24" height="24" viewBox="0 0 24 24" xmlns="http://www.w3.org/2000/svg" fill="none">
    <path d="M6.049,10.485C6.196,10.098 6.629,9.903 7.016,10.05L12,11.941L16.984,10.05C17.371,9.903 17.804,10.098 17.951,10.485C18.098,10.872 17.903,11.306 17.516,11.452L12.75,13.261L12.75,16.051C12.75,16.465 12.414,16.801 12,16.801C11.586,16.801 11.25,16.465 11.25,16.051L11.25,13.261L6.484,11.452C6.097,11.306 5.902,10.872 6.049,10.485Z" fill="#212121"/>
    <path d="M10.591,5.05C11.495,4.684 12.505,4.684 13.409,5.05L20.908,8.09C21.568,8.358 22,8.999 22,9.712L22,16.088C22,16.801 21.568,17.442 20.908,17.71L13.409,20.75C12.505,21.116 11.495,21.116 10.591,20.75L3.093,17.71C2.432,17.442 2,16.801 2,16.088L2,9.712C2,8.999 2.432,8.358 3.093,8.09L10.591,5.05ZM12.845,6.44C12.303,6.22 11.697,6.22 11.155,6.44L3.656,9.48C3.562,9.518 3.5,9.61 3.5,9.712L3.5,16.088C3.5,16.19 3.562,16.281 3.656,16.32L11.155,19.36C11.697,19.579 12.303,19.579 12.845,19.36L20.344,16.32C20.438,16.281 20.5,16.19 20.5,16.088L20.5,9.712C20.5,9.61 20.438,9.518 20.344,9.48L12.845,6.44Z" fill="#212121"/>
</svg>
