<svg width="24" height="24" viewBox="0 0 24 24" fill="none" xmlns="http://www.w3.org/2000/svg">
<path d="M12 7C12.4142 7 12.75 7.33579 12.75 7.75V11.25H16.25C16.6642 11.25 17 11.5858 17 12C17 12.4142 16.6642 12.75 16.25 12.75H12.75V16.25C12.75 16.6642 12.4142 17 12 17C11.5858 17 11.25 16.6642 11.25 16.25V12.75H7.75C7.33579 12.75 7 12.4142 7 12C7 11.5858 7.33579 11.25 7.75 11.25H11.25V7.75C11.25 7.33579 11.5858 7 12 7Z" fill=" "/>
  <circle cx="50" cy="50" r="40" stroke="#212121" stroke-width="1.5" fill="#212121" />
</svg>
