<?xml version="1.0" encoding="UTF-8" standalone="no"?><!DOCTYPE svg PUBLIC "-//W3C//DTD SVG 1.1//EN" "http://www.w3.org/Graphics/SVG/1.1/DTD/svg11.dtd"><svg width="100%" height="100%" viewBox="0 0 128 127" version="1.1" xmlns="http://www.w3.org/2000/svg" xmlns:xlink="http://www.w3.org/1999/xlink" xml:space="preserve" xmlns:serif="http://www.serif.com/" style="fill-rule:evenodd;clip-rule:evenodd;stroke-linejoin:round;stroke-miterlimit:2;"><rect id="Logo" x="0" y="0" width="128" height="126.255" style="fill:none;"/><clipPath id="_clip1"><rect x="0" y="0" width="128" height="126.255"/></clipPath><g clip-path="url(#_clip1)"><path d="M35.114,71.794c-0.127,-0.278 -0.119,-0.599 0.021,-0.871c0.139,-0.272 0.396,-0.465 0.695,-0.524c3.117,-0.681 6.919,-2.275 10.923,-5.694c4.977,-4.249 10.2,-11.434 14.832,-23.882c0.874,-3.264 -1.066,-6.624 -4.331,-7.498c-3.264,-0.874 -6.623,1.067 -7.497,4.331c-1.835,10.892 -4.709,17.722 -8.206,21.891c-2.879,3.432 -5.859,4.984 -8.165,5.672c-0.504,0.136 -1.028,-0.14 -1.2,-0.633c-0.949,-2.723 -1.712,-5.493 -2.219,-8.32c-2.043,-11.381 1.428,-23.46 14.956,-37.206c2.833,-3.242 2.501,-8.173 -0.741,-11.006c-3.241,-2.833 -8.173,-2.501 -11.006,0.741c-7.75,10.007 -11.944,19.044 -13.683,27.405c-0.065,0.331 -0.293,0.607 -0.606,0.733c-0.313,0.127 -0.669,0.086 -0.946,-0.107c-0.976,-0.704 -1.963,-1.58 -2.867,-2.673c-1.287,-1.556 -2.184,-3.645 -2.78,-6.272c-1.028,-4.528 -0.24,-10.461 2.547,-18.675c0.853,-3.987 -1.691,-7.916 -5.678,-8.769c-3.986,-0.853 -7.915,1.691 -8.768,5.678c-1.459,15.054 1.294,23.974 5.469,29.569c3.678,4.928 8.293,7.306 11.942,8.453c0.426,0.128 0.716,0.525 0.709,0.97c-0.052,4.609 0.592,9.026 1.715,13.307c1.411,5.38 3.736,10.509 6.449,15.483c0.18,0.327 0.162,0.726 -0.044,1.036c-0.207,0.31 -0.569,0.479 -0.939,0.439c-1.003,-0.147 -2.167,-0.438 -3.498,-0.956c-3.459,-1.348 -7.517,-4.358 -12.838,-9.656c-2.445,-1.874 -5.951,-1.41 -7.825,1.035c-1.874,2.444 -1.41,5.951 1.034,7.824c7.816,4.524 13.53,6.503 17.947,7.153c3.932,0.578 6.838,0.202 8.931,-0.49c0.445,-0.159 0.941,0.017 1.186,0.42c8.546,13.999 18.303,27.068 16.653,41.497c-0.205,1.521 0.584,3.004 1.96,3.685c1.375,0.681 3.032,0.409 4.118,-0.677c-0,0 11.872,-11.802 23.768,-29.557c0.315,-0.47 0.63,-0.945 0.944,-1.423c0.259,-0.394 0.758,-0.554 1.198,-0.383c5.789,2.179 16.051,4.545 26.617,-0.214c7.557,-3.404 15.126,-10.471 21.635,-24.128c1.453,-3.916 -0.548,-8.274 -4.463,-9.726c-3.916,-1.453 -8.274,0.548 -9.727,4.463c-2.94,10.815 -7.124,17.27 -12.253,20.646c-6.225,4.097 -12.922,4.07 -17.613,3.251c-0.318,-0.061 -0.587,-0.274 -0.72,-0.57c-0.133,-0.295 -0.114,-0.638 0.051,-0.917c4.531,-7.697 8.745,-16.186 12.03,-25.222c1.164,-3.202 2.189,-6.461 3.052,-9.769c0.111,-0.428 0.489,-0.732 0.931,-0.748c3.851,-0.18 8.671,-1.263 13.165,-4.7c5.689,-4.352 10.742,-12.558 12.61,-28.403c0.059,-3.877 -3.041,-7.072 -6.918,-7.131c-3.877,-0.058 -7.072,3.042 -7.131,6.919c0.812,9.11 0.042,15.277 -2.258,19.444c-1.933,3.502 -4.569,5.47 -7.121,6.56c-0.332,0.131 -0.708,0.073 -0.985,-0.15c-0.278,-0.224 -0.413,-0.58 -0.355,-0.931c1.806,-11.303 1.568,-23.116 -1.642,-35.241c-2.091,-5.737 -8.446,-8.697 -14.183,-6.606c-5.737,2.091 -8.697,8.446 -6.606,14.183c3.242,6.759 5.368,13.515 5.995,20.446c1.059,11.688 -0.763,23.244 -4.247,33.865c-2.598,7.922 -5.964,15.306 -9.618,21.818c-4.793,8.541 -9.895,15.623 -13.894,20.669c-0.243,0.302 -0.639,0.437 -1.016,0.345c-0.377,-0.092 -0.667,-0.393 -0.744,-0.774c-2.88,-13.008 -12.433,-25.699 -18.752,-39.429Z" style="fill:url(#_Linear2);"/></g><defs><linearGradient id="_Linear2" x1="0" y1="0" x2="1" y2="0" gradientUnits="userSpaceOnUse" gradientTransform="matrix(48.5943,-97.2875,97.2875,48.5942,42.7434,122.676)"><stop offset="0" style="stop-color:#a20098;stop-opacity:1"/><stop offset="1" style="stop-color:#f56b6b;stop-opacity:1"/></linearGradient></defs></svg>